<?xml version="1.0" encoding="utf-8"?>
<!-- Svg Vector Icons : http://www.onlinewebfonts.com/icon -->
<!DOCTYPE svg PUBLIC "-//W3C//DTD SVG 1.1//EN" "http://www.w3.org/Graphics/SVG/1.1/DTD/svg11.dtd">
<svg version="1.1" xmlns="http://www.w3.org/2000/svg" xmlns:xlink="http://www.w3.org/1999/xlink" x="0px" y="0px" viewBox="0 0 1000 1000" enable-background="new 0 0 1000 1000" xml:space="preserve">
<metadata> Svg Vector Icons : http://www.onlinewebfonts.com/icon </metadata>
<g><path d="M500,10C229.8,10,10,229.8,10,500c0,270.2,219.8,490,490,490v-22.4V990c270.2,0,490-219.8,490-490C990,229.8,770.2,10,500,10z M500,945.1C254.5,945.1,54.9,745.5,54.9,500C54.9,254.5,254.5,54.9,500,54.9c245.5,0,445.1,199.6,445.1,445.1C945.1,745.5,745.5,945.1,500,945.1z M501.1,152.1c-191.9,0-347.9,156.1-347.9,347.9c0,191.8,156.1,347.9,347.9,347.9C692.9,847.9,849,691.8,849,500C849,308.2,692.9,152.1,501.1,152.1z M501.1,803c-167.1,0-303-135.9-303-303c0-167.1,135.9-303,303-303c167.1,0,303,135.9,303,303C804.1,667.1,668.2,803,501.1,803z M656.5,330.1L511.9,463.9c-5.1-1.8-10.6-2.9-16.2-2.9c-7.7,0-15,2-21.7,5.2l-95.9-84.1c-9.5-8.2-23.5-7.2-31.7,2.1c-8.2,9.3-7.4,23.5,1.9,31.7l98.2,85.9c-0.5,2.9-0.8,6-0.8,9.1c0,13.4,5.1,26,14.5,35.4c9.5,9.5,22.1,14.7,35.5,14.7c13.4,0,25.8-5.2,35.3-14.7c13.6-13.6,17.5-33,12.2-50.3L686.9,363c9.1-8.3,9.6-22.5,1.3-31.7C679.7,322.3,665.6,321.6,656.5,330.1z M499.3,514.7c-2.5,2.4-4.7,2.4-7.2,0c-1.3-1.3-1.6-2.8-1.6-3.8c0-1,0.3-2.3,1.6-3.6c1.1-1.3,2.6-1.5,3.6-1.5c1,0,2.3,0.2,3.6,1.5C501.3,509.3,501.3,512.6,499.3,514.7z"/></g>
</svg>